<svg xmlns="http://www.w3.org/2000/svg" viewBox="0 0 1600 1000" role="img"><defs>
<filter id="wc" x="-5%" y="-5%" width="110%" height="110%" color-interpolation-filters="sRGB">
  <!-- ふちを ゆらす。まっすぐな線を なくす -->
  <feTurbulence type="fractalNoise" baseFrequency="0.013" numOctaves="3" seed="7" result="n"/>
  <feDisplacementMap in="SourceGraphic" in2="n" scale="13" xChannelSelector="R" yChannelSelector="G" result="d"/>
  <feGaussianBlur in="d" stdDeviation="1.1" result="soft"/>

  <!-- にじみの ふち。水彩は かわくとき、ふちに 色が たまって 濃くなる。
       中を けずった ぶんを 引くと、ふちだけが 残る -->
  <feMorphology in="soft" operator="erode" radius="4" result="inner"/>
  <feComposite in="soft" in2="inner" operator="out" result="rim"/>
  <feGaussianBlur in="rim" stdDeviation="2" result="rimSoft"/>
  <feColorMatrix in="rimSoft" type="matrix"
    values="0.66 0 0 0 0  0 0.66 0 0 0  0 0 0.66 0 0  0 0 0 0.28 0" result="rimDark"/>

  <!-- 塗りの中の むら。均一な塗りは 絵の具に見えない -->
  <feTurbulence type="fractalNoise" baseFrequency="0.02" numOctaves="4" seed="19" result="m"/>
  <feColorMatrix in="m" type="matrix"
    values="0 0 0 0 0  0 0 0 0 0  0 0 0 0 0  0.32 0 0 0 -0.19" result="mottleA"/>
  <feComposite in="mottleA" in2="soft" operator="in" result="mottle"/>

  <feMerge>
    <feMergeNode in="soft"/><feMergeNode in="mottle"/><feMergeNode in="rimDark"/>
  </feMerge>
</filter>

<filter id="paper" x="0" y="0" width="100%" height="100%" color-interpolation-filters="sRGB">
  <feTurbulence type="fractalNoise" baseFrequency="0.7" numOctaves="5" seed="5" result="t"/>
  <feColorMatrix in="t" type="matrix"
    values="0 0 0 0 0.45  0 0 0 0 0.42  0 0 0 0 0.36  0.55 0 0 0 -0.12"/>
</filter>
</defs><defs><linearGradient id="sky" x1="0" y1="0" x2="0" y2="1">
<stop offset="0" stop-color="#9aa9b8"/><stop offset="1" stop-color="#c8d3dc"/></linearGradient>
<radialGradient id="glow" cx="0.5" cy="0.5" r="0.5">
<stop offset="0" stop-color="#ffe9b0" stop-opacity=".8"/><stop offset="1" stop-color="#ffe9b0" stop-opacity="0"/></radialGradient>
</defs><rect width="1600" height="1000" fill="url(#sky)"/><g filter="url(#wc)"><g stroke="#7fa8c4" stroke-width="7" stroke-linecap="round" opacity=".85"><line x1="504" y1="610" x2="490" y2="656"/><line x1="295" y1="179" x2="281" y2="225"/><line x1="15" y1="631" x2="1" y2="677"/><line x1="1130" y1="315" x2="1116" y2="361"/><line x1="1271" y1="251" x2="1257" y2="297"/><line x1="1296" y1="86" x2="1282" y2="132"/><line x1="1392" y1="5" x2="1378" y2="51"/><line x1="1301" y1="44" x2="1287" y2="90"/><line x1="166" y1="299" x2="152" y2="345"/><line x1="950" y1="304" x2="936" y2="350"/><line x1="316" y1="645" x2="302" y2="691"/><line x1="1276" y1="663" x2="1262" y2="709"/><line x1="126" y1="585" x2="112" y2="631"/><line x1="1352" y1="603" x2="1338" y2="649"/><line x1="756" y1="477" x2="742" y2="523"/><line x1="1282" y1="575" x2="1268" y2="621"/><line x1="1359" y1="481" x2="1345" y2="527"/><line x1="724" y1="552" x2="710" y2="598"/><line x1="331" y1="477" x2="317" y2="523"/><line x1="253" y1="420" x2="239" y2="466"/><line x1="620" y1="321" x2="606" y2="367"/><line x1="496" y1="638" x2="482" y2="684"/><line x1="1421" y1="687" x2="1407" y2="733"/><line x1="764" y1="371" x2="750" y2="417"/><line x1="571" y1="73" x2="557" y2="119"/><line x1="902" y1="296" x2="888" y2="342"/><line x1="385" y1="479" x2="371" y2="525"/><line x1="881" y1="629" x2="867" y2="675"/><line x1="446" y1="148" x2="432" y2="194"/><line x1="1070" y1="519" x2="1056" y2="565"/><line x1="1276" y1="267" x2="1262" y2="313"/><line x1="92" y1="210" x2="78" y2="256"/><line x1="21" y1="151" x2="7" y2="197"/><line x1="411" y1="568" x2="397" y2="614"/><line x1="1258" y1="453" x2="1244" y2="499"/><line x1="155" y1="325" x2="141" y2="371"/><line x1="876" y1="483" x2="862" y2="529"/><line x1="1313" y1="678" x2="1299" y2="724"/><line x1="520" y1="426" x2="506" y2="472"/><line x1="832" y1="458" x2="818" y2="504"/></g><path d="M0 900 Q400 840 800 890 T1600 860 L1600 1000 L0 1000 Z" fill="#7f9a86"/>
<g transform="translate(560 580.4000000000001) scale(1.4)">
  <path d="M-44 30 L44 30 L54 150 L-54 150 Z" fill="#d9524a"/>
  <rect x="-46" y="150" width="34" height="60" rx="16" fill="#f0c9a8"/>
  <rect x="12" y="150" width="34" height="60" rx="16" fill="#f0c9a8"/>
  <circle cx="0" cy="-24" r="62" fill="#f0c9a8"/>
  <path d="M-62 -34 a62 62 0 0 1 124 0 q-62 -34 -124 0 Z" fill="#3d2b22"/>
  <circle cx="-22" cy="-16" r="8" fill="#241812"/><circle cx="22" cy="-16" r="8" fill="#241812"/>
  <path d="M-14 6 q14 12 28 0" stroke="#b9705c" stroke-width="6" fill="none" stroke-linecap="round"/>
</g>
<g transform="translate(560 330) scale(1.5)">
  <path d="M-140 0 A140 140 0 0 1 140 0 Z" fill="#5aa7d6"/>
  <path d="M-140 0 q35 34 70 0 q35 34 70 0 q35 34 70 0" fill="#5aa7d6"/>
  <rect x="-7" y="0" width="14" height="150" rx="7" fill="#7d5a3c"/>
  <path d="M7 150 q0 34 -34 34" stroke="#7d5a3c" stroke-width="14" fill="none" stroke-linecap="round"/>
</g><g transform="translate(1120 639.2) scale(1.4)">
    <ellipse cx="0" cy="96" rx="86" ry="76" fill="#79b96a"/>
       <ellipse cx="0" cy="112" rx="52" ry="50" fill="#f2e3c8"/><circle cx="-44" cy="-82" r="32" fill="#79b96a"/><circle cx="44" cy="-82" r="32" fill="#79b96a"/>
             <circle cx="-44" cy="-86" r="14" fill="#241812"/><circle cx="44" cy="-86" r="14" fill="#241812"/><circle cx="0" cy="0" r="72" fill="#79b96a"/><circle cx="-24" cy="4" r="10" fill="#241812"/><circle cx="24" cy="4" r="10" fill="#241812"/>
       <ellipse cx="0" cy="40" rx="28" ry="20" fill="#f2e3c8"/>
       <circle cx="0" cy="32" r="8" fill="#241812"/>
  </g></g><rect width="1600" height="1000" filter="url(#paper)" opacity=".22"/></svg>
