<svg xmlns="http://www.w3.org/2000/svg" viewBox="0 0 1600 1000" role="img"><defs><linearGradient id="sky" x1="0" y1="0" x2="0" y2="1">
<stop offset="0" stop-color="#6b4a72"/><stop offset="1" stop-color="#e2915f"/></linearGradient>
<radialGradient id="glow" cx="0.5" cy="0.5" r="0.5">
<stop offset="0" stop-color="#ffe9b0" stop-opacity=".8"/><stop offset="1" stop-color="#ffe9b0" stop-opacity="0"/></radialGradient>
</defs><rect width="1600" height="1000" fill="url(#sky)"/>
<g transform="translate(72.65147652477026 760.727940343786) scale(1.0690265819896012)">
  <rect x="-16" y="-90" width="32" height="96" rx="10" fill="#7d5a3c"/>
  <circle cx="0" cy="-140" r="80" fill="#3f7a52"/>
  <circle cx="-58" cy="-96" r="52" fill="#3f7a52"/>
  <circle cx="58" cy="-96" r="52" fill="#3f7a52"/>
</g>
<g transform="translate(448.65568736568093 753.1863013119437) scale(1.0361213558819145)">
  <rect x="-16" y="-90" width="32" height="96" rx="10" fill="#7d5a3c"/>
  <circle cx="0" cy="-140" r="80" fill="#3f7a52"/>
  <circle cx="-58" cy="-96" r="52" fill="#3f7a52"/>
  <circle cx="58" cy="-96" r="52" fill="#3f7a52"/>
</g>
<g transform="translate(781.3281079381704 752.4751154077239) scale(0.903293569618836)">
  <rect x="-16" y="-90" width="32" height="96" rx="10" fill="#7d5a3c"/>
  <circle cx="0" cy="-140" r="80" fill="#4f8b5a"/>
  <circle cx="-58" cy="-96" r="52" fill="#4f8b5a"/>
  <circle cx="58" cy="-96" r="52" fill="#4f8b5a"/>
</g>
<g transform="translate(1140.0908449850976 765.0725849741139) scale(0.872993617830798)">
  <rect x="-16" y="-90" width="32" height="96" rx="10" fill="#7d5a3c"/>
  <circle cx="0" cy="-140" r="80" fill="#4f8b5a"/>
  <circle cx="-58" cy="-96" r="52" fill="#4f8b5a"/>
  <circle cx="58" cy="-96" r="52" fill="#4f8b5a"/>
</g>
<g transform="translate(1526.5412219241261 737.0105546270497) scale(0.8836280871648341)">
  <rect x="-16" y="-90" width="32" height="96" rx="10" fill="#7d5a3c"/>
  <circle cx="0" cy="-140" r="80" fill="#3f7a52"/>
  <circle cx="-58" cy="-96" r="52" fill="#3f7a52"/>
  <circle cx="58" cy="-96" r="52" fill="#3f7a52"/>
</g><path d="M0 900 Q400 840 800 890 T1600 860 L1600 1000 L0 1000 Z" fill="#5f7a68"/>
<g transform="translate(760 580.4000000000001) scale(1.4)">
  <path d="M-44 30 L44 30 L54 150 L-54 150 Z" fill="#d98a4a"/>
  <rect x="-46" y="150" width="34" height="60" rx="16" fill="#f0c9a8"/>
  <rect x="12" y="150" width="34" height="60" rx="16" fill="#f0c9a8"/>
  <circle cx="0" cy="-24" r="62" fill="#f0c9a8"/>
  <path d="M-62 -34 a62 62 0 0 1 124 0 q-62 -34 -124 0 Z" fill="#3d2b22"/>
  <circle cx="-22" cy="-16" r="8" fill="#241812"/><circle cx="22" cy="-16" r="8" fill="#241812"/>
  <path d="M-14 6 q14 12 28 0" stroke="#b9705c" stroke-width="6" fill="none" stroke-linecap="round"/>
</g></svg>
