<svg xmlns="http://www.w3.org/2000/svg" viewBox="0 0 1600 1000" role="img"><defs><linearGradient id="sky" x1="0" y1="0" x2="0" y2="1">
<stop offset="0" stop-color="#48507e"/><stop offset="1" stop-color="#f2c98a"/></linearGradient>
<radialGradient id="glow" cx="0.5" cy="0.5" r="0.5">
<stop offset="0" stop-color="#ffe9b0" stop-opacity=".8"/><stop offset="1" stop-color="#ffe9b0" stop-opacity="0"/></radialGradient>
</defs><rect width="1600" height="1000" fill="url(#sky)"/><path d="M0 780 q100 -40 200 0 t200 0 t200 0 t200 0 t200 0 t200 0 t200 0 t200 0 L1600 1000 L0 1000 Z" fill="#4a7a90"/><path d="M0 920 Q400 860 800 910 T1600 880 L1600 1000 L0 1000 Z" fill="#e8d8b0"/>
<g transform="translate(760 780) scale(1.2)">
  <path d="M-130 0 L130 0 L96 56 L-96 56 Z" fill="#a8763f"/>
  <rect x="-6" y="-160" width="12" height="160" rx="6" fill="#7d5a3c"/>
  <path d="M6 -150 L110 -14 L6 -14 Z" fill="#fffaf2"/>
</g></svg>
