<svg xmlns="http://www.w3.org/2000/svg" viewBox="0 0 1600 1000" role="img"><defs>
<filter id="wc" x="-5%" y="-5%" width="110%" height="110%" color-interpolation-filters="sRGB">
  <!-- ふちを ゆらす。まっすぐな線を なくす -->
  <feTurbulence type="fractalNoise" baseFrequency="0.013" numOctaves="3" seed="7" result="n"/>
  <feDisplacementMap in="SourceGraphic" in2="n" scale="13" xChannelSelector="R" yChannelSelector="G" result="d"/>
  <feGaussianBlur in="d" stdDeviation="1.1" result="soft"/>

  <!-- にじみの ふち。水彩は かわくとき、ふちに 色が たまって 濃くなる。
       中を けずった ぶんを 引くと、ふちだけが 残る -->
  <feMorphology in="soft" operator="erode" radius="4" result="inner"/>
  <feComposite in="soft" in2="inner" operator="out" result="rim"/>
  <feGaussianBlur in="rim" stdDeviation="2" result="rimSoft"/>
  <feColorMatrix in="rimSoft" type="matrix"
    values="0.66 0 0 0 0  0 0.66 0 0 0  0 0 0.66 0 0  0 0 0 0.28 0" result="rimDark"/>

  <!-- 塗りの中の むら。均一な塗りは 絵の具に見えない -->
  <feTurbulence type="fractalNoise" baseFrequency="0.02" numOctaves="4" seed="19" result="m"/>
  <feColorMatrix in="m" type="matrix"
    values="0 0 0 0 0  0 0 0 0 0  0 0 0 0 0  0.32 0 0 0 -0.19" result="mottleA"/>
  <feComposite in="mottleA" in2="soft" operator="in" result="mottle"/>

  <feMerge>
    <feMergeNode in="soft"/><feMergeNode in="mottle"/><feMergeNode in="rimDark"/>
  </feMerge>
</filter>

<filter id="paper" x="0" y="0" width="100%" height="100%" color-interpolation-filters="sRGB">
  <feTurbulence type="fractalNoise" baseFrequency="0.7" numOctaves="5" seed="5" result="t"/>
  <feColorMatrix in="t" type="matrix"
    values="0 0 0 0 0.45  0 0 0 0 0.42  0 0 0 0 0.36  0.55 0 0 0 -0.12"/>
</filter>
</defs><defs><linearGradient id="sky" x1="0" y1="0" x2="0" y2="1">
<stop offset="0" stop-color="#c9d8e6"/><stop offset="1" stop-color="#eef4f8"/></linearGradient>
<radialGradient id="glow" cx="0.5" cy="0.5" r="0.5">
<stop offset="0" stop-color="#ffe9b0" stop-opacity=".8"/><stop offset="1" stop-color="#ffe9b0" stop-opacity="0"/></radialGradient>
</defs><rect width="1600" height="1000" fill="url(#sky)"/><g filter="url(#wc)"><path d="M-50 780 Q250 580 600 740 T1250 680 T1700 790 L1700 1000 L-50 1000 Z" fill="#dfe9f2"/><g fill="#fff" stroke="#b9cbdb" stroke-width="2" opacity=".95"><circle cx="411" cy="267" r="8.3"/><circle cx="1126" cy="39" r="10.2"/><circle cx="81" cy="28" r="8.4"/><circle cx="1186" cy="751" r="7.8"/><circle cx="545" cy="235" r="9.0"/><circle cx="239" cy="131" r="6.0"/><circle cx="1289" cy="417" r="8.7"/><circle cx="795" cy="263" r="6.3"/><circle cx="750" cy="565" r="11.6"/><circle cx="1282" cy="995" r="5.6"/><circle cx="1058" cy="553" r="7.5"/><circle cx="1165" cy="846" r="7.6"/><circle cx="1153" cy="382" r="7.7"/><circle cx="997" cy="512" r="5.1"/><circle cx="596" cy="426" r="7.1"/><circle cx="184" cy="929" r="6.7"/><circle cx="1083" cy="992" r="10.0"/><circle cx="719" cy="674" r="8.1"/><circle cx="1023" cy="227" r="8.5"/><circle cx="850" cy="842" r="11.8"/><circle cx="1196" cy="577" r="5.9"/><circle cx="1599" cy="322" r="8.4"/><circle cx="404" cy="414" r="10.4"/><circle cx="43" cy="889" r="6.4"/><circle cx="1116" cy="892" r="5.4"/><circle cx="91" cy="538" r="7.3"/><circle cx="528" cy="458" r="10.5"/><circle cx="1350" cy="332" r="5.1"/><circle cx="749" cy="388" r="5.1"/><circle cx="186" cy="538" r="10.4"/></g><path d="M0 860 Q400 800 800 850 T1600 820 L1600 1000 L0 1000 Z" fill="#f4f8fb"/><g fill="#a8bdd0"><ellipse cx="180" cy="964" rx="53.199999999999996" ry="34.199999999999996"/><ellipse cx="400" cy="895" rx="53.199999999999996" ry="34.199999999999996"/><ellipse cx="620" cy="964" rx="53.199999999999996" ry="34.199999999999996"/></g><g transform="translate(980 504.40000000000003) scale(2.3)">
    <ellipse cx="0" cy="96" rx="86" ry="76" fill="#8a5a3b"/>
       <ellipse cx="0" cy="112" rx="52" ry="50" fill="#f2e3c8"/><circle cx="-46" cy="-52" r="30" fill="#8a5a3b"/><circle cx="46" cy="-52" r="30" fill="#8a5a3b"/><circle cx="0" cy="0" r="72" fill="#8a5a3b"/><circle cx="-24" cy="4" r="10" fill="#241812"/><circle cx="24" cy="4" r="10" fill="#241812"/>
       <ellipse cx="0" cy="40" rx="28" ry="20" fill="#f2e3c8"/>
       <circle cx="0" cy="32" r="8" fill="#241812"/>
  </g></g><rect width="1600" height="1000" filter="url(#paper)" opacity=".22"/></svg>
