<svg xmlns="http://www.w3.org/2000/svg" viewBox="0 0 1600 1000" role="img"><defs><linearGradient id="sky" x1="0" y1="0" x2="0" y2="1">
<stop offset="0" stop-color="#9ed2e6"/><stop offset="1" stop-color="#dcefe4"/></linearGradient>
<radialGradient id="glow" cx="0.5" cy="0.5" r="0.5">
<stop offset="0" stop-color="#ffe9b0" stop-opacity=".8"/><stop offset="1" stop-color="#ffe9b0" stop-opacity="0"/></radialGradient>
</defs><rect width="1600" height="1000" fill="url(#sky)"/>
<g transform="translate(113.49035507068038 178.5358778340742) scale(1.193291193805635)" fill="#fffaf2">
  <ellipse cx="0" cy="0" rx="120" ry="52"/><circle cx="-56" cy="-16" r="46"/><circle cx="44" cy="-24" r="56"/>
</g>
<g transform="translate(1493.2020216528326 180.65647763200104) scale(1.0706282402854412)" fill="#fffaf2">
  <ellipse cx="0" cy="0" rx="120" ry="52"/><circle cx="-56" cy="-16" r="46"/><circle cx="44" cy="-24" r="56"/>
</g><path d="M0 900 Q400 840 800 890 T1600 860 L1600 1000 L0 1000 Z" fill="#8fae74"/>
<g transform="translate(800 800) scale(2.2)">
  <circle cx="0" cy="0" r="60" fill="#e2645a"/>
  <path d="M-60 0 q60 -40 120 0" stroke="#fffaf2" stroke-width="10" fill="none"/>
  <path d="M-60 0 q60 40 120 0" stroke="#fffaf2" stroke-width="10" fill="none"/>
</g></svg>
