<svg xmlns="http://www.w3.org/2000/svg" viewBox="0 0 1600 1000" role="img"><defs><linearGradient id="sky" x1="0" y1="0" x2="0" y2="1">
<stop offset="0" stop-color="#48507e"/><stop offset="1" stop-color="#f2c98a"/></linearGradient>
<radialGradient id="glow" cx="0.5" cy="0.5" r="0.5">
<stop offset="0" stop-color="#ffe9b0" stop-opacity=".8"/><stop offset="1" stop-color="#ffe9b0" stop-opacity="0"/></radialGradient>
</defs><rect width="1600" height="1000" fill="url(#sky)"/><path d="M-50 840 Q250 640 600 800 T1250 740 T1700 850 L1700 1000 L-50 1000 Z" fill="#7f9a6a"/><path d="M0 900 Q400 840 800 890 T1600 860 L1600 1000 L0 1000 Z" fill="#8fae74"/>
<g transform="translate(820 780) rotate(0) scale(3.6)">
  <ellipse cx="0" cy="0" rx="18" ry="26" fill="#c9964a"/>
  <g stroke="#f2e3c8" stroke-width="6" stroke-linecap="round" fill="none">
    <path d="M0 -26 q-40 -30 -70 -16"/><path d="M0 -26 q-16 -44 6 -66"/><path d="M0 -26 q40 -26 70 -8"/>
  </g>
</g></svg>
