<svg xmlns="http://www.w3.org/2000/svg" viewBox="0 0 1600 1000" role="img"><defs><linearGradient id="sky" x1="0" y1="0" x2="0" y2="1">
<stop offset="0" stop-color="#141d3a"/><stop offset="1" stop-color="#2b3a63"/></linearGradient>
<radialGradient id="glow" cx="0.5" cy="0.5" r="0.5">
<stop offset="0" stop-color="#ffe9b0" stop-opacity=".8"/><stop offset="1" stop-color="#ffe9b0" stop-opacity="0"/></radialGradient>
</defs><rect width="1600" height="1000" fill="url(#sky)"/><g fill="#fff" opacity=".85"><circle cx="427" cy="325" r="2.1"/><circle cx="1065" cy="191" r="1.9"/><circle cx="412" cy="441" r="2.9"/><circle cx="376" cy="285" r="1.9"/><circle cx="1183" cy="510" r="2.5"/><circle cx="429" cy="58" r="2.6"/><circle cx="910" cy="246" r="2.5"/><circle cx="209" cy="358" r="1.6"/><circle cx="834" cy="27" r="2.6"/><circle cx="1192" cy="26" r="1.8"/><circle cx="1502" cy="305" r="2.3"/><circle cx="791" cy="92" r="2.2"/><circle cx="1587" cy="392" r="3.0"/><circle cx="692" cy="290" r="1.8"/></g><circle cx="1300" cy="200" r="240" fill="url(#glow)"/><circle cx="1300" cy="200" r="100" fill="#ffe9b0"/><path d="M-50 840 Q250 640 600 800 T1250 740 T1700 850 L1700 1000 L-50 1000 Z" fill="#2a3550"/>
<g transform="translate(760 840) scale(1.15) translate(-800 -760)">
  <rect x="620" y="440" width="360" height="320" rx="14" fill="#f0e2cc"/>
  <path d="M580 450 L800 310 L1020 450 Z" fill="#c76a4c"/>
  <rect x="672" y="520" width="120" height="100" rx="8" fill="#ffd98a"/>
  <rect x="816" y="520" width="120" height="100" rx="8" fill="#ffd98a"/>
  <rect x="756" y="660" width="92" height="100" rx="6" fill="#8a5a3b"/>
</g></svg>
