<svg xmlns="http://www.w3.org/2000/svg" viewBox="0 0 1600 1000" role="img"><defs><linearGradient id="sky" x1="0" y1="0" x2="0" y2="1">
<stop offset="0" stop-color="#3a2c20"/><stop offset="1" stop-color="#5b4636"/></linearGradient>
<radialGradient id="glow" cx="0.5" cy="0.5" r="0.5">
<stop offset="0" stop-color="#ffe9b0" stop-opacity=".8"/><stop offset="1" stop-color="#ffe9b0" stop-opacity="0"/></radialGradient>
</defs><rect width="1600" height="1000" fill="url(#sky)"/>
<g transform="translate(1300 260) scale(1.3)">
  <circle cx="0" cy="0" r="150" fill="url(#glow)"/>
  <path d="M-46 -30 L46 -30 L30 40 L-30 40 Z" fill="#ffd98a" stroke="#c9964a" stroke-width="8" stroke-linejoin="round"/>
  <rect x="-8" y="-80" width="16" height="50" rx="8" fill="#7d5a3c"/>
</g><rect x="100" y="430" width="1400" height="26" rx="8" fill="#7d5a3c"/><rect x="100" y="760" width="1400" height="26" rx="8" fill="#7d5a3c"/>
<g transform="translate(280 350) scale(1.1)">
  <path d="M-110 -70 Q-55 -96 0 -70 L0 70 Q-55 44 -110 70 Z" fill="#fffaf2" stroke="#c25b3a" stroke-width="12" stroke-linejoin="round"/>
  <path d="M110 -70 Q55 -96 0 -70 L0 70 Q55 44 110 70 Z" fill="#fffaf2" stroke="#c25b3a" stroke-width="12" stroke-linejoin="round"/>
</g>
<g transform="translate(600 350) scale(1.1)">
  <path d="M-110 -70 Q-55 -96 0 -70 L0 70 Q-55 44 -110 70 Z" fill="#fffaf2" stroke="#5aa7d6" stroke-width="12" stroke-linejoin="round"/>
  <path d="M110 -70 Q55 -96 0 -70 L0 70 Q55 44 110 70 Z" fill="#fffaf2" stroke="#5aa7d6" stroke-width="12" stroke-linejoin="round"/>
</g>
<g transform="translate(920 350) scale(1.1)">
  <path d="M-110 -70 Q-55 -96 0 -70 L0 70 Q-55 44 -110 70 Z" fill="#fffaf2" stroke="#79b96a" stroke-width="12" stroke-linejoin="round"/>
  <path d="M110 -70 Q55 -96 0 -70 L0 70 Q55 44 110 70 Z" fill="#fffaf2" stroke="#79b96a" stroke-width="12" stroke-linejoin="round"/>
</g>
<g transform="translate(280 680) scale(1.1)">
  <path d="M-110 -70 Q-55 -96 0 -70 L0 70 Q-55 44 -110 70 Z" fill="#fffaf2" stroke="#e8a33c" stroke-width="12" stroke-linejoin="round"/>
  <path d="M110 -70 Q55 -96 0 -70 L0 70 Q55 44 110 70 Z" fill="#fffaf2" stroke="#e8a33c" stroke-width="12" stroke-linejoin="round"/>
</g>
<g transform="translate(600 680) scale(1.1)">
  <path d="M-110 -70 Q-55 -96 0 -70 L0 70 Q-55 44 -110 70 Z" fill="#fffaf2" stroke="#8f7ac4" stroke-width="12" stroke-linejoin="round"/>
  <path d="M110 -70 Q55 -96 0 -70 L0 70 Q55 44 110 70 Z" fill="#fffaf2" stroke="#8f7ac4" stroke-width="12" stroke-linejoin="round"/>
</g></svg>
