<svg xmlns="http://www.w3.org/2000/svg" viewBox="0 0 1600 1000" role="img"><defs><linearGradient id="sky" x1="0" y1="0" x2="0" y2="1">
<stop offset="0" stop-color="#141d3a"/><stop offset="1" stop-color="#2b3a63"/></linearGradient>
<radialGradient id="glow" cx="0.5" cy="0.5" r="0.5">
<stop offset="0" stop-color="#ffe9b0" stop-opacity=".8"/><stop offset="1" stop-color="#ffe9b0" stop-opacity="0"/></radialGradient>
</defs><rect width="1600" height="1000" fill="url(#sky)"/><g fill="#fff" opacity=".85"><circle cx="509" cy="264" r="3.5"/><circle cx="824" cy="350" r="1.8"/><circle cx="1157" cy="449" r="2.2"/><circle cx="1217" cy="513" r="3.3"/><circle cx="1133" cy="348" r="2.3"/><circle cx="523" cy="91" r="2.6"/><circle cx="1094" cy="333" r="1.6"/><circle cx="1378" cy="254" r="2.4"/><circle cx="1441" cy="483" r="1.6"/><circle cx="371" cy="73" r="1.5"/><circle cx="1464" cy="472" r="2.7"/><circle cx="1491" cy="121" r="2.0"/><circle cx="325" cy="227" r="2.4"/><circle cx="1002" cy="268" r="2.9"/></g><circle cx="800" cy="260" r="312" fill="url(#glow)"/><circle cx="800" cy="260" r="130" fill="#ffe9b0"/><path d="M0 900 Q400 840 800 890 T1600 860 L1600 1000 L0 1000 Z" fill="#3f5a4a"/>
<g transform="translate(760 860) scale(1.2)" fill="#a8763f">
  <rect x="-140" y="-10" width="280" height="22" rx="10"/><rect x="-140" y="-70" width="280" height="18" rx="9"/>
  <rect x="-120" y="10" width="18" height="70" rx="8"/><rect x="102" y="10" width="18" height="70" rx="8"/>
</g><g transform="translate(1120 639.2) scale(1.4)">
    <ellipse cx="0" cy="96" rx="86" ry="76" fill="#8f8f96"/>
       <ellipse cx="0" cy="112" rx="52" ry="50" fill="#f2e3c8"/><path d="M-62 -34 L-52 -92 L-16 -56 Z" fill="#8f8f96"/><path d="M62 -34 L52 -92 L16 -56 Z" fill="#8f8f96"/><circle cx="0" cy="0" r="72" fill="#8f8f96"/><circle cx="-24" cy="4" r="10" fill="#241812"/><circle cx="24" cy="4" r="10" fill="#241812"/>
       <ellipse cx="0" cy="40" rx="28" ry="20" fill="#f2e3c8"/>
       <circle cx="0" cy="32" r="8" fill="#241812"/>
  </g></svg>
