<svg xmlns="http://www.w3.org/2000/svg" viewBox="0 0 1600 1000" role="img"><defs>
<filter id="wc" x="-5%" y="-5%" width="110%" height="110%" color-interpolation-filters="sRGB">
  <!-- ふちを ゆらす。まっすぐな線を なくす -->
  <feTurbulence type="fractalNoise" baseFrequency="0.013" numOctaves="3" seed="7" result="n"/>
  <feDisplacementMap in="SourceGraphic" in2="n" scale="13" xChannelSelector="R" yChannelSelector="G" result="d"/>
  <feGaussianBlur in="d" stdDeviation="1.1" result="soft"/>

  <!-- にじみの ふち。水彩は かわくとき、ふちに 色が たまって 濃くなる。
       中を けずった ぶんを 引くと、ふちだけが 残る -->
  <feMorphology in="soft" operator="erode" radius="4" result="inner"/>
  <feComposite in="soft" in2="inner" operator="out" result="rim"/>
  <feGaussianBlur in="rim" stdDeviation="2" result="rimSoft"/>
  <feColorMatrix in="rimSoft" type="matrix"
    values="0.66 0 0 0 0  0 0.66 0 0 0  0 0 0.66 0 0  0 0 0 0.28 0" result="rimDark"/>

  <!-- 塗りの中の むら。均一な塗りは 絵の具に見えない -->
  <feTurbulence type="fractalNoise" baseFrequency="0.02" numOctaves="4" seed="19" result="m"/>
  <feColorMatrix in="m" type="matrix"
    values="0 0 0 0 0  0 0 0 0 0  0 0 0 0 0  0.32 0 0 0 -0.19" result="mottleA"/>
  <feComposite in="mottleA" in2="soft" operator="in" result="mottle"/>

  <feMerge>
    <feMergeNode in="soft"/><feMergeNode in="mottle"/><feMergeNode in="rimDark"/>
  </feMerge>
</filter>

<filter id="paper" x="0" y="0" width="100%" height="100%" color-interpolation-filters="sRGB">
  <feTurbulence type="fractalNoise" baseFrequency="0.7" numOctaves="5" seed="5" result="t"/>
  <feColorMatrix in="t" type="matrix"
    values="0 0 0 0 0.45  0 0 0 0 0.42  0 0 0 0 0.36  0.55 0 0 0 -0.12"/>
</filter>
</defs><defs><linearGradient id="sky" x1="0" y1="0" x2="0" y2="1">
<stop offset="0" stop-color="#bfe0c2"/><stop offset="1" stop-color="#7fae86"/></linearGradient>
<radialGradient id="glow" cx="0.5" cy="0.5" r="0.5">
<stop offset="0" stop-color="#ffe9b0" stop-opacity=".8"/><stop offset="1" stop-color="#ffe9b0" stop-opacity="0"/></radialGradient>
</defs><rect width="1600" height="1000" fill="url(#sky)"/><g filter="url(#wc)">
<g transform="translate(67.07072157412767 729.1731223021634) scale(0.9040339012164622)">
  <rect x="-16" y="-90" width="32" height="96" rx="10" fill="#7d5a3c"/>
  <circle cx="0" cy="-140" r="80" fill="#3f7a52"/>
  <circle cx="-58" cy="-96" r="52" fill="#3f7a52"/>
  <circle cx="58" cy="-96" r="52" fill="#3f7a52"/>
</g>
<g transform="translate(379.5415755100548 755.7167063490488) scale(0.8116774824913591)">
  <rect x="-16" y="-90" width="32" height="96" rx="10" fill="#7d5a3c"/>
  <circle cx="0" cy="-140" r="80" fill="#3f7a52"/>
  <circle cx="-58" cy="-96" r="52" fill="#3f7a52"/>
  <circle cx="58" cy="-96" r="52" fill="#3f7a52"/>
</g>
<g transform="translate(631.8301867544651 721.8570380029269) scale(0.956215768167749)">
  <rect x="-16" y="-90" width="32" height="96" rx="10" fill="#7d5a3c"/>
  <circle cx="0" cy="-140" r="80" fill="#3f7a52"/>
  <circle cx="-58" cy="-96" r="52" fill="#3f7a52"/>
  <circle cx="58" cy="-96" r="52" fill="#3f7a52"/>
</g>
<g transform="translate(957.2890209369361 716.8840566673316) scale(0.9737920850049704)">
  <rect x="-16" y="-90" width="32" height="96" rx="10" fill="#7d5a3c"/>
  <circle cx="0" cy="-140" r="80" fill="#4f8b5a"/>
  <circle cx="-58" cy="-96" r="52" fill="#4f8b5a"/>
  <circle cx="58" cy="-96" r="52" fill="#4f8b5a"/>
</g>
<g transform="translate(1253.1205650493503 749.4142932374962) scale(1.0535225533414632)">
  <rect x="-16" y="-90" width="32" height="96" rx="10" fill="#7d5a3c"/>
  <circle cx="0" cy="-140" r="80" fill="#3f7a52"/>
  <circle cx="-58" cy="-96" r="52" fill="#3f7a52"/>
  <circle cx="58" cy="-96" r="52" fill="#3f7a52"/>
</g>
<g transform="translate(1544.6436848677695 715.2344980300404) scale(0.7896994562353938)">
  <rect x="-16" y="-90" width="32" height="96" rx="10" fill="#7d5a3c"/>
  <circle cx="0" cy="-140" r="80" fill="#3f7a52"/>
  <circle cx="-58" cy="-96" r="52" fill="#3f7a52"/>
  <circle cx="58" cy="-96" r="52" fill="#3f7a52"/>
</g><path d="M0 900 Q400 840 800 890 T1600 860 L1600 1000 L0 1000 Z" fill="#7fae86"/><g transform="translate(380 596.4) scale(1.3)">
    <ellipse cx="0" cy="46" rx="66" ry="56" fill="#e8a33c"/>
       <path d="M-66 40 q-60 6 -86 42 q56 12 90 -14 Z" fill="#e8a33c"/>
       <path d="M0 -6 l34 22 l-34 16 Z" fill="#e8a33c"/><circle cx="0" cy="0" r="46" fill="#e8a33c"/><circle cx="-18" cy="-8" r="8" fill="#241812"/><circle cx="18" cy="-8" r="8" fill="#241812"/>
  </g><g transform="translate(680 639.2) scale(1.4)">
    <ellipse cx="0" cy="96" rx="86" ry="76" fill="#b9bfcb"/>
       <ellipse cx="0" cy="112" rx="52" ry="50" fill="#f2e3c8"/><circle cx="-46" cy="-46" r="34" fill="#b9bfcb"/><circle cx="46" cy="-46" r="34" fill="#b9bfcb"/>
             <circle cx="-46" cy="-46" r="18" fill="#e4b9bd"/><circle cx="46" cy="-46" r="18" fill="#e4b9bd"/><circle cx="0" cy="0" r="72" fill="#b9bfcb"/><circle cx="-24" cy="4" r="10" fill="#241812"/><circle cx="24" cy="4" r="10" fill="#241812"/>
       <ellipse cx="0" cy="40" rx="28" ry="20" fill="#f2e3c8"/>
       <circle cx="0" cy="32" r="8" fill="#241812"/>
  </g><g transform="translate(960 622) scale(1.5)">
    <ellipse cx="0" cy="96" rx="86" ry="76" fill="#79b96a"/>
       <ellipse cx="0" cy="112" rx="52" ry="50" fill="#f2e3c8"/><circle cx="-44" cy="-82" r="32" fill="#79b96a"/><circle cx="44" cy="-82" r="32" fill="#79b96a"/>
             <circle cx="-44" cy="-86" r="14" fill="#241812"/><circle cx="44" cy="-86" r="14" fill="#241812"/><circle cx="0" cy="0" r="72" fill="#79b96a"/><circle cx="-24" cy="4" r="10" fill="#241812"/><circle cx="24" cy="4" r="10" fill="#241812"/>
       <ellipse cx="0" cy="40" rx="28" ry="20" fill="#f2e3c8"/>
       <circle cx="0" cy="32" r="8" fill="#241812"/>
  </g>
<g transform="translate(1280 580.4000000000001) scale(1.4)">
  <path d="M-44 30 L44 30 L54 150 L-54 150 Z" fill="#d9524a"/>
  <rect x="-46" y="150" width="34" height="60" rx="16" fill="#f0c9a8"/>
  <rect x="12" y="150" width="34" height="60" rx="16" fill="#f0c9a8"/>
  <circle cx="0" cy="-24" r="62" fill="#f0c9a8"/>
  <path d="M-62 -34 a62 62 0 0 1 124 0 q-62 -34 -124 0 Z" fill="#3d2b22"/>
  <circle cx="-22" cy="-16" r="8" fill="#241812"/><circle cx="22" cy="-16" r="8" fill="#241812"/>
  <path d="M-14 6 q14 12 28 0" stroke="#b9705c" stroke-width="6" fill="none" stroke-linecap="round"/>
</g></g><rect width="1600" height="1000" filter="url(#paper)" opacity=".22"/></svg>
