<svg xmlns="http://www.w3.org/2000/svg" viewBox="0 0 1600 1000" role="img"><defs>
<filter id="wc" x="-5%" y="-5%" width="110%" height="110%" color-interpolation-filters="sRGB">
  <!-- ふちを ゆらす。まっすぐな線を なくす -->
  <feTurbulence type="fractalNoise" baseFrequency="0.013" numOctaves="3" seed="7" result="n"/>
  <feDisplacementMap in="SourceGraphic" in2="n" scale="13" xChannelSelector="R" yChannelSelector="G" result="d"/>
  <feGaussianBlur in="d" stdDeviation="1.1" result="soft"/>

  <!-- にじみの ふち。水彩は かわくとき、ふちに 色が たまって 濃くなる。
       中を けずった ぶんを 引くと、ふちだけが 残る -->
  <feMorphology in="soft" operator="erode" radius="4" result="inner"/>
  <feComposite in="soft" in2="inner" operator="out" result="rim"/>
  <feGaussianBlur in="rim" stdDeviation="2" result="rimSoft"/>
  <feColorMatrix in="rimSoft" type="matrix"
    values="0.66 0 0 0 0  0 0.66 0 0 0  0 0 0.66 0 0  0 0 0 0.28 0" result="rimDark"/>

  <!-- 塗りの中の むら。均一な塗りは 絵の具に見えない -->
  <feTurbulence type="fractalNoise" baseFrequency="0.02" numOctaves="4" seed="19" result="m"/>
  <feColorMatrix in="m" type="matrix"
    values="0 0 0 0 0  0 0 0 0 0  0 0 0 0 0  0.32 0 0 0 -0.19" result="mottleA"/>
  <feComposite in="mottleA" in2="soft" operator="in" result="mottle"/>

  <feMerge>
    <feMergeNode in="soft"/><feMergeNode in="mottle"/><feMergeNode in="rimDark"/>
  </feMerge>
</filter>

<filter id="paper" x="0" y="0" width="100%" height="100%" color-interpolation-filters="sRGB">
  <feTurbulence type="fractalNoise" baseFrequency="0.7" numOctaves="5" seed="5" result="t"/>
  <feColorMatrix in="t" type="matrix"
    values="0 0 0 0 0.45  0 0 0 0 0.42  0 0 0 0 0.36  0.55 0 0 0 -0.12"/>
</filter>
</defs><defs><linearGradient id="sky" x1="0" y1="0" x2="0" y2="1">
<stop offset="0" stop-color="#9aa9b8"/><stop offset="1" stop-color="#c8d3dc"/></linearGradient>
<radialGradient id="glow" cx="0.5" cy="0.5" r="0.5">
<stop offset="0" stop-color="#ffe9b0" stop-opacity=".8"/><stop offset="1" stop-color="#ffe9b0" stop-opacity="0"/></radialGradient>
</defs><rect width="1600" height="1000" fill="url(#sky)"/><g filter="url(#wc)"><g stroke="#7fa8c4" stroke-width="7" stroke-linecap="round" opacity=".85"><line x1="442" y1="498" x2="428" y2="544"/><line x1="46" y1="362" x2="32" y2="408"/><line x1="1114" y1="268" x2="1100" y2="314"/><line x1="274" y1="643" x2="260" y2="689"/><line x1="662" y1="389" x2="648" y2="435"/><line x1="1574" y1="670" x2="1560" y2="716"/><line x1="331" y1="611" x2="317" y2="657"/><line x1="1204" y1="692" x2="1190" y2="738"/><line x1="1017" y1="624" x2="1003" y2="670"/><line x1="698" y1="608" x2="684" y2="654"/><line x1="636" y1="53" x2="622" y2="99"/><line x1="167" y1="493" x2="153" y2="539"/><line x1="354" y1="149" x2="340" y2="195"/><line x1="501" y1="271" x2="487" y2="317"/><line x1="1084" y1="233" x2="1070" y2="279"/><line x1="726" y1="108" x2="712" y2="154"/><line x1="888" y1="309" x2="874" y2="355"/><line x1="508" y1="413" x2="494" y2="459"/><line x1="1109" y1="462" x2="1095" y2="508"/><line x1="664" y1="561" x2="650" y2="607"/><line x1="648" y1="424" x2="634" y2="470"/><line x1="1267" y1="489" x2="1253" y2="535"/><line x1="1425" y1="50" x2="1411" y2="96"/><line x1="611" y1="416" x2="597" y2="462"/><line x1="435" y1="239" x2="421" y2="285"/><line x1="223" y1="406" x2="209" y2="452"/><line x1="234" y1="517" x2="220" y2="563"/><line x1="774" y1="261" x2="760" y2="307"/><line x1="1274" y1="135" x2="1260" y2="181"/><line x1="1300" y1="407" x2="1286" y2="453"/></g><path d="M0 900 Q400 840 800 890 T1600 860 L1600 1000 L0 1000 Z" fill="#8fae74"/><ellipse cx="800" cy="890" rx="320" ry="74" fill="#9ec9dd"/><g transform="translate(800 612) scale(1.5)">
    <ellipse cx="0" cy="96" rx="86" ry="76" fill="#79b96a"/>
       <ellipse cx="0" cy="112" rx="52" ry="50" fill="#f2e3c8"/><circle cx="-44" cy="-82" r="32" fill="#79b96a"/><circle cx="44" cy="-82" r="32" fill="#79b96a"/>
             <circle cx="-44" cy="-86" r="14" fill="#241812"/><circle cx="44" cy="-86" r="14" fill="#241812"/><circle cx="0" cy="0" r="72" fill="#79b96a"/><circle cx="-24" cy="4" r="10" fill="#241812"/><circle cx="24" cy="4" r="10" fill="#241812"/>
       <ellipse cx="0" cy="40" rx="28" ry="20" fill="#f2e3c8"/>
       <circle cx="0" cy="32" r="8" fill="#241812"/>
  </g></g><rect width="1600" height="1000" filter="url(#paper)" opacity=".22"/></svg>
