<svg xmlns="http://www.w3.org/2000/svg" viewBox="0 0 1600 1000" role="img"><defs>
<filter id="wc" x="-5%" y="-5%" width="110%" height="110%" color-interpolation-filters="sRGB">
  <!-- ふちを ゆらす。まっすぐな線を なくす -->
  <feTurbulence type="fractalNoise" baseFrequency="0.013" numOctaves="3" seed="7" result="n"/>
  <feDisplacementMap in="SourceGraphic" in2="n" scale="13" xChannelSelector="R" yChannelSelector="G" result="d"/>
  <feGaussianBlur in="d" stdDeviation="1.1" result="soft"/>

  <!-- にじみの ふち。水彩は かわくとき、ふちに 色が たまって 濃くなる。
       中を けずった ぶんを 引くと、ふちだけが 残る -->
  <feMorphology in="soft" operator="erode" radius="4" result="inner"/>
  <feComposite in="soft" in2="inner" operator="out" result="rim"/>
  <feGaussianBlur in="rim" stdDeviation="2" result="rimSoft"/>
  <feColorMatrix in="rimSoft" type="matrix"
    values="0.66 0 0 0 0  0 0.66 0 0 0  0 0 0.66 0 0  0 0 0 0.28 0" result="rimDark"/>

  <!-- 塗りの中の むら。均一な塗りは 絵の具に見えない -->
  <feTurbulence type="fractalNoise" baseFrequency="0.02" numOctaves="4" seed="19" result="m"/>
  <feColorMatrix in="m" type="matrix"
    values="0 0 0 0 0  0 0 0 0 0  0 0 0 0 0  0.32 0 0 0 -0.19" result="mottleA"/>
  <feComposite in="mottleA" in2="soft" operator="in" result="mottle"/>

  <feMerge>
    <feMergeNode in="soft"/><feMergeNode in="mottle"/><feMergeNode in="rimDark"/>
  </feMerge>
</filter>

<filter id="paper" x="0" y="0" width="100%" height="100%" color-interpolation-filters="sRGB">
  <feTurbulence type="fractalNoise" baseFrequency="0.7" numOctaves="5" seed="5" result="t"/>
  <feColorMatrix in="t" type="matrix"
    values="0 0 0 0 0.45  0 0 0 0 0.42  0 0 0 0 0.36  0.55 0 0 0 -0.12"/>
</filter>
</defs><defs><linearGradient id="sky" x1="0" y1="0" x2="0" y2="1">
<stop offset="0" stop-color="#c9d8e6"/><stop offset="1" stop-color="#eef4f8"/></linearGradient>
<radialGradient id="glow" cx="0.5" cy="0.5" r="0.5">
<stop offset="0" stop-color="#ffe9b0" stop-opacity=".8"/><stop offset="1" stop-color="#ffe9b0" stop-opacity="0"/></radialGradient>
</defs><rect width="1600" height="1000" fill="url(#sky)"/><g filter="url(#wc)"><g fill="#fff" stroke="#b9cbdb" stroke-width="2" opacity=".95"><circle cx="558" cy="764" r="10.3"/><circle cx="762" cy="992" r="11.7"/><circle cx="330" cy="156" r="5.4"/><circle cx="570" cy="284" r="9.9"/><circle cx="1371" cy="815" r="9.7"/><circle cx="983" cy="428" r="10.3"/><circle cx="912" cy="584" r="7.3"/><circle cx="1420" cy="108" r="6.3"/><circle cx="468" cy="274" r="11.9"/><circle cx="957" cy="930" r="7.7"/><circle cx="1477" cy="317" r="9.6"/><circle cx="709" cy="24" r="5.5"/><circle cx="1166" cy="196" r="7.3"/><circle cx="556" cy="115" r="11.0"/><circle cx="1590" cy="333" r="8.0"/><circle cx="1446" cy="16" r="5.6"/><circle cx="434" cy="911" r="7.1"/><circle cx="365" cy="628" r="9.8"/><circle cx="831" cy="669" r="6.7"/><circle cx="522" cy="247" r="11.1"/><circle cx="139" cy="987" r="5.1"/><circle cx="1304" cy="253" r="8.4"/><circle cx="767" cy="763" r="5.6"/><circle cx="11" cy="796" r="6.9"/><circle cx="321" cy="574" r="11.2"/><circle cx="350" cy="801" r="5.1"/><circle cx="336" cy="690" r="7.8"/><circle cx="905" cy="149" r="5.6"/><circle cx="1347" cy="456" r="6.7"/><circle cx="1131" cy="325" r="11.8"/><circle cx="1295" cy="757" r="10.0"/><circle cx="1456" cy="637" r="8.1"/><circle cx="632" cy="450" r="11.4"/><circle cx="959" cy="445" r="10.6"/><circle cx="831" cy="222" r="11.2"/><circle cx="302" cy="233" r="8.8"/><circle cx="404" cy="985" r="9.8"/><circle cx="1088" cy="842" r="5.9"/><circle cx="1596" cy="84" r="6.7"/><circle cx="148" cy="379" r="5.8"/><circle cx="171" cy="995" r="6.8"/><circle cx="969" cy="219" r="10.1"/><circle cx="1035" cy="218" r="7.5"/><circle cx="181" cy="772" r="11.6"/><circle cx="791" cy="459" r="6.9"/></g><path d="M0 900 Q400 840 800 890 T1600 860 L1600 1000 L0 1000 Z" fill="#f4f8fb"/>
<g transform="translate(800 559) scale(1.5)">
  <path d="M-44 30 L44 30 L54 150 L-54 150 Z" fill="#d9524a"/>
  <rect x="-46" y="150" width="34" height="60" rx="16" fill="#f0c9a8"/>
  <rect x="12" y="150" width="34" height="60" rx="16" fill="#f0c9a8"/>
  <circle cx="0" cy="-24" r="62" fill="#f0c9a8"/>
  <path d="M-62 -34 a62 62 0 0 1 124 0 q-62 -34 -124 0 Z" fill="#3d2b22"/>
  <circle cx="-22" cy="-16" r="8" fill="#241812"/><circle cx="22" cy="-16" r="8" fill="#241812"/>
  <path d="M-14 6 q14 12 28 0" stroke="#b9705c" stroke-width="6" fill="none" stroke-linecap="round"/>
</g></g><rect width="1600" height="1000" filter="url(#paper)" opacity=".22"/></svg>
